<?xml version="1.0" standalone="no"?>
<!DOCTYPE svg PUBLIC "-//W3C//DTD SVG 20010904//EN"
 "http://www.w3.org/TR/2001/REC-SVG-20010904/DTD/svg10.dtd">
<svg version="1.0" xmlns="http://www.w3.org/2000/svg"
 width="481.000000pt" height="481.000000pt" viewBox="0 0 481.000000 481.000000"
 preserveAspectRatio="xMidYMid meet">
<metadata>
Created by potrace 1.14, written by Peter Selinger 2001-2017
</metadata>
<g transform="translate(0.000000,481.000000) scale(0.100000,-0.100000)"
fill="#000000" stroke="none">
<path d="M2307 4804 c-1 -1 -40 -4 -87 -8 -110 -7 -159 -14 -245 -31 -38 -8
-81 -16 -95 -19 -94 -16 -327 -91 -435 -141 -38 -18 -77 -35 -85 -38 -76 -33
-325 -184 -366 -222 -6 -5 -22 -17 -35 -25 -72 -47 -263 -226 -369 -345 -52
-58 -174 -224 -220 -297 -49 -79 -179 -336 -204 -403 -50 -139 -104 -333 -120
-435 -3 -19 -8 -48 -11 -65 -3 -16 -7 -45 -10 -62 -18 -105 -23 -352 -11 -506
6 -75 32 -242 51 -327 3 -14 7 -37 10 -51 3 -14 14 -57 26 -94 11 -37 22 -75
24 -84 11 -45 82 -214 130 -309 84 -165 113 -213 215 -355 163 -225 418 -463
665 -619 164 -104 412 -215 585 -263 83 -23 138 -38 150 -40 240 -47 340 -58
525 -58 201 0 333 14 560 63 124 26 391 116 422 142 7 6 13 7 13 2 0 -5 4 -4
8 1 4 6 56 34 116 64 115 58 245 141 379 243 106 81 318 293 393 394 32 43 61
81 64 84 3 3 25 34 48 70 23 36 47 71 53 78 25 30 168 324 198 407 47 131 48
133 70 215 152 561 98 1155 -150 1668 -82 169 -142 267 -254 417 -76 102 -245
284 -340 366 -197 171 -501 352 -720 428 -50 17 -97 34 -105 38 -8 3 -19 7
-25 8 -9 3 -87 24 -110 31 -73 22 -287 59 -405 70 -65 6 -298 12 -303 8z"/>
</g>
</svg>
